<svg width="145" height="37" viewBox="0 0 145 37" fill="none" xmlns="http://www.w3.org/2000/svg">
<path d="M31.5 19.9796C31.5 28.7299 24.5509 35.8061 16 35.8061C7.44906 35.8061 0.5 28.7299 0.5 19.9796C0.5 11.2293 7.44906 4.15308 16 4.15308C24.5509 4.15308 31.5 11.2293 31.5 19.9796Z" fill="black"/>
<path d="M31.5 19.9796C31.5 28.7299 24.5509 35.8061 16 35.8061C7.44906 35.8061 0.5 28.7299 0.5 19.9796C0.5 11.2293 7.44906 4.15308 16 4.15308C24.5509 4.15308 31.5 11.2293 31.5 19.9796Z" stroke="black"/>
<path d="M31.5 19.9796C31.5 28.7299 24.5509 35.8061 16 35.8061C7.44906 35.8061 0.5 28.7299 0.5 19.9796C0.5 11.2293 7.44906 4.15308 16 4.15308C24.5509 4.15308 31.5 11.2293 31.5 19.9796Z" stroke="black" stroke-opacity="0.2"/>
<path d="M24.9895 8.72448L15.9992 22.9615L7.00882 8.72448L24.9895 8.72448Z" fill="white"/>
<path d="M24.9895 8.72448L15.9992 22.9615L7.00882 8.72448L24.9895 8.72448Z" fill="white"/>
<path d="M24.9895 8.72448L15.9992 22.9615L7.00882 8.72448L24.9895 8.72448Z" stroke="black"/>
<path d="M7.01049 31.2347L16.0008 16.9977L24.9912 31.2347H7.01049Z" fill="white" stroke="black"/>
<path d="M24.9895 8.72448L15.9992 22.9615L7.00882 8.72448L24.9895 8.72448Z" stroke="black"/>
<path d="M44.76 26.16C43.8133 26.16 43.0533 25.8667 42.48 25.28C41.9067 24.68 41.58 23.8933 41.5 22.92L43.28 22.38C43.3867 23.1133 43.5667 23.6667 43.82 24.04C44.0733 24.4 44.4467 24.58 44.94 24.58C45.3267 24.58 45.62 24.4733 45.82 24.26C46.02 24.0333 46.12 23.7333 46.12 23.36C46.12 23.0267 46.0467 22.7267 45.9 22.46C45.7533 22.1933 45.5133 21.92 45.18 21.64L43.2 19.94C42.8 19.5933 42.46 19.2067 42.18 18.78C41.9133 18.3533 41.78 17.8 41.78 17.12C41.78 16.5067 41.9 15.9933 42.14 15.58C42.3933 15.1533 42.74 14.8333 43.18 14.62C43.6333 14.3933 44.16 14.28 44.76 14.28C45.68 14.28 46.38 14.58 46.86 15.18C47.3533 15.7667 47.6333 16.48 47.7 17.32L46.26 17.86C46.2067 17.46 46.1267 17.1133 46.02 16.82C45.9133 16.5133 45.7667 16.28 45.58 16.12C45.3933 15.9467 45.1467 15.86 44.84 15.86C44.4933 15.86 44.2133 15.98 44 16.22C43.8 16.4467 43.7 16.72 43.7 17.04C43.7 17.24 43.74 17.44 43.82 17.64C43.9133 17.8267 44.0667 18.0133 44.28 18.2L46.32 20.08C46.6 20.3333 46.86 20.6067 47.1 20.9C47.3533 21.1933 47.56 21.5267 47.72 21.9C47.88 22.2733 47.96 22.7067 47.96 23.2C47.96 23.8533 47.8267 24.4 47.56 24.84C47.2933 25.28 46.92 25.6133 46.44 25.84C45.96 26.0533 45.4 26.16 44.76 26.16ZM51.4605 26L49.1805 14.44H51.3405L52.7605 23.74L54.2005 14.44H56.2805L54.0805 26H51.4605ZM61.2558 26.16C60.3491 26.16 59.6491 25.9867 59.1558 25.64C58.6624 25.28 58.3158 24.76 58.1158 24.08C57.9291 23.3867 57.8358 22.54 57.8358 21.54V18.9C57.8358 17.8733 57.9358 17.02 58.1358 16.34C58.3358 15.66 58.6824 15.1467 59.1758 14.8C59.6824 14.4533 60.3758 14.28 61.2558 14.28C62.2291 14.28 62.9424 14.48 63.3958 14.88C63.8624 15.28 64.1691 15.86 64.3158 16.62C64.4624 17.3667 64.5358 18.2667 64.5358 19.32V20.26H59.9758V22.58C59.9758 23.0467 60.0158 23.4267 60.0958 23.72C60.1891 24.0133 60.3291 24.2333 60.5158 24.38C60.7158 24.5133 60.9691 24.58 61.2758 24.58C61.5958 24.58 61.8358 24.5067 61.9958 24.36C62.1691 24.2 62.2824 23.98 62.3358 23.7C62.4024 23.4067 62.4358 23.0667 62.4358 22.68V21.98H64.5158V22.42C64.5158 23.58 64.2691 24.4933 63.7758 25.16C63.2824 25.8267 62.4424 26.16 61.2558 26.16ZM59.9758 19.1H62.4358V18.06C62.4358 17.58 62.4091 17.18 62.3558 16.86C62.3024 16.5267 62.1891 16.28 62.0158 16.12C61.8558 15.9467 61.5958 15.86 61.2358 15.86C60.8891 15.86 60.6224 15.94 60.4358 16.1C60.2624 16.26 60.1424 16.5333 60.0758 16.92C60.0091 17.2933 59.9758 17.8133 59.9758 18.48V19.1ZM66.8738 26V14.44H69.0138V15.58C69.4004 15.22 69.8271 14.9133 70.2938 14.66C70.7604 14.4067 71.2738 14.28 71.8338 14.28C72.3004 14.28 72.6538 14.4 72.8938 14.64C73.1471 14.88 73.3204 15.18 73.4138 15.54C73.5204 15.9 73.5738 16.2667 73.5738 16.64V26H71.4338V17.26C71.4338 16.8467 71.3738 16.5267 71.2538 16.3C71.1338 16.0733 70.8871 15.96 70.5138 15.96C70.2738 15.96 70.0204 16.0333 69.7538 16.18C69.5004 16.3133 69.2538 16.48 69.0138 16.68V26H66.8738ZM76.1228 26V14.44H78.2628V16.08C78.6895 15.3733 79.1161 14.9 79.5428 14.66C79.9695 14.42 80.3961 14.3 80.8228 14.3C80.8761 14.3 80.9228 14.3 80.9628 14.3C81.0161 14.3 81.0828 14.3067 81.1628 14.32V16.68C81.0028 16.6133 80.8161 16.56 80.6028 16.52C80.4028 16.4667 80.1961 16.44 79.9828 16.44C79.6495 16.44 79.3428 16.52 79.0628 16.68C78.7961 16.8267 78.5295 17.12 78.2628 17.56V26H76.1228ZM86.0886 26.16C85.1819 26.16 84.4819 25.9867 83.9886 25.64C83.4953 25.28 83.1486 24.76 82.9486 24.08C82.7619 23.3867 82.6686 22.54 82.6686 21.54V18.9C82.6686 17.8733 82.7686 17.02 82.9686 16.34C83.1686 15.66 83.5153 15.1467 84.0086 14.8C84.5153 14.4533 85.2086 14.28 86.0886 14.28C87.0619 14.28 87.7753 14.48 88.2286 14.88C88.6953 15.28 89.0019 15.86 89.1486 16.62C89.2953 17.3667 89.3686 18.2667 89.3686 19.32V20.26H84.8086V22.58C84.8086 23.0467 84.8486 23.4267 84.9286 23.72C85.0219 24.0133 85.1619 24.2333 85.3486 24.38C85.5486 24.5133 85.8019 24.58 86.1086 24.58C86.4286 24.58 86.6686 24.5067 86.8286 24.36C87.0019 24.2 87.1153 23.98 87.1686 23.7C87.2353 23.4067 87.2686 23.0667 87.2686 22.68V21.98H89.3486V22.42C89.3486 23.58 89.1019 24.4933 88.6086 25.16C88.1153 25.8267 87.2753 26.16 86.0886 26.16ZM84.8086 19.1H87.2686V18.06C87.2686 17.58 87.2419 17.18 87.1886 16.86C87.1353 16.5267 87.0219 16.28 86.8486 16.12C86.6886 15.9467 86.4286 15.86 86.0686 15.86C85.7219 15.86 85.4553 15.94 85.2686 16.1C85.0953 16.26 84.9753 16.5333 84.9086 16.92C84.8419 17.2933 84.8086 17.8133 84.8086 18.48V19.1ZM91.7666 26V9.8H93.9066V15.64C94.2932 15.2667 94.7266 14.9467 95.2066 14.68C95.6866 14.4133 96.2199 14.28 96.8066 14.28C97.2599 14.28 97.6066 14.4 97.8466 14.64C98.0999 14.88 98.2732 15.18 98.3666 15.54C98.4732 15.9 98.5266 16.2667 98.5266 16.64V26H96.3866V17.26C96.3866 16.8467 96.3266 16.5267 96.2066 16.3C96.0866 16.0733 95.8399 15.96 95.4666 15.96C95.2132 15.96 94.9466 16.0333 94.6666 16.18C94.3999 16.3267 94.1466 16.5067 93.9066 16.72V26H91.7666ZM101.013 26V14.44H102.993V15.54C103.379 15.1 103.806 14.7733 104.273 14.56C104.739 14.3467 105.219 14.24 105.713 14.24C106.139 14.24 106.519 14.3467 106.853 14.56C107.199 14.7733 107.446 15.1533 107.593 15.7C108.006 15.1933 108.453 14.8267 108.933 14.6C109.426 14.36 109.939 14.24 110.473 14.24C110.846 14.24 111.186 14.3333 111.493 14.52C111.799 14.6933 112.046 14.98 112.233 15.38C112.419 15.7667 112.513 16.28 112.513 16.92V26H110.553V17.06C110.553 16.5 110.459 16.1267 110.273 15.94C110.099 15.74 109.859 15.64 109.553 15.64C109.259 15.64 108.953 15.7267 108.633 15.9C108.313 16.06 108.019 16.2867 107.753 16.58C107.753 16.6333 107.753 16.6867 107.753 16.74C107.753 16.7933 107.753 16.8533 107.753 16.92V26H105.793V17.06C105.793 16.5 105.699 16.1267 105.513 15.94C105.339 15.74 105.099 15.64 104.793 15.64C104.499 15.64 104.193 15.7267 103.873 15.9C103.566 16.06 103.273 16.2867 102.993 16.58V26H101.013Z" fill="black"/>
</svg>
