<svg width="49" height="52" viewBox="0 0 49 52" fill="none" xmlns="http://www.w3.org/2000/svg">
<path d="M48.5 26C48.5 39.5405 37.7454 50.5 24.5 50.5C11.2546 50.5 0.5 39.5405 0.5 26C0.5 12.4595 11.2546 1.5 24.5 1.5C37.7454 1.5 48.5 12.4595 48.5 26Z" fill="black"/>
<path d="M48.5 26C48.5 39.5405 37.7454 50.5 24.5 50.5C11.2546 50.5 0.5 39.5405 0.5 26C0.5 12.4595 11.2546 1.5 24.5 1.5C37.7454 1.5 48.5 12.4595 48.5 26Z" stroke="black"/>
<path d="M48.5 26C48.5 39.5405 37.7454 50.5 24.5 50.5C11.2546 50.5 0.5 39.5405 0.5 26C0.5 12.4595 11.2546 1.5 24.5 1.5C37.7454 1.5 48.5 12.4595 48.5 26Z" stroke="black" stroke-opacity="0.2"/>
<path d="M38.7484 8.5L24.5 31.0636L10.2516 8.5L38.7484 8.5Z" fill="white"/>
<path d="M38.7484 8.5L24.5 31.0636L10.2516 8.5L38.7484 8.5Z" fill="white"/>
<path d="M38.7484 8.5L24.5 31.0636L10.2516 8.5L38.7484 8.5Z" stroke="black"/>
<path d="M10.2516 43.5L24.5 20.9364L38.7484 43.5H10.2516Z" fill="white" stroke="black"/>
<path d="M38.7484 8.5L24.5 31.0636L10.2516 8.5L38.7484 8.5Z" stroke="black"/>
</svg>
